<?xml version="1.0" encoding="UTF-8" ?>
<svg xmlns="http://www.w3.org/2000/svg" xmlns:xlink="http://www.w3.org/1999/xlink" height="100" width="100">
  <g id="qrcode:https://janvoss.github.io/Test/">
    <rect x="0" y="0" width="100px" height="100px" style="fill:white;"/>
    <rect x="9.68" y="9.68" width="3.23" height="3.23" stroke="black" stroke-width="0.2" stroke-linecap="butt" fill="black"/>
    <rect x="9.68" y="12.90" width="3.23" height="3.23" stroke="black" stroke-width="0.2" stroke-linecap="butt" fill="black"/>
    <rect x="9.68" y="16.13" width="3.23" height="3.23" stroke="black" stroke-width="0.2" stroke-linecap="butt" fill="black"/>
    <rect x="9.68" y="19.35" width="3.23" height="3.23" stroke="black" stroke-width="0.2" stroke-linecap="butt" fill="black"/>
    <rect x="9.68" y="22.58" width="3.23" height="3.23" stroke="black" stroke-width="0.2" stroke-linecap="butt" fill="black"/>
    <rect x="9.68" y="25.81" width="3.23" height="3.23" stroke="black" stroke-width="0.2" stroke-linecap="butt" fill="black"/>
    <rect x="9.68" y="29.03" width="3.23" height="3.23" stroke="black" stroke-width="0.2" stroke-linecap="butt" fill="black"/>
    <rect x="9.68" y="35.48" width="3.23" height="3.23" stroke="black" stroke-width="0.2" stroke-linecap="butt" fill="black"/>
    <rect x="9.68" y="38.71" width="3.23" height="3.23" stroke="black" stroke-width="0.2" stroke-linecap="butt" fill="black"/>
    <rect x="9.68" y="45.16" width="3.23" height="3.23" stroke="black" stroke-width="0.2" stroke-linecap="butt" fill="black"/>
    <rect x="9.68" y="48.39" width="3.23" height="3.23" stroke="black" stroke-width="0.2" stroke-linecap="butt" fill="black"/>
    <rect x="9.68" y="58.06" width="3.23" height="3.23" stroke="black" stroke-width="0.2" stroke-linecap="butt" fill="black"/>
    <rect x="9.68" y="67.74" width="3.23" height="3.23" stroke="black" stroke-width="0.2" stroke-linecap="butt" fill="black"/>
    <rect x="9.68" y="70.97" width="3.23" height="3.23" stroke="black" stroke-width="0.2" stroke-linecap="butt" fill="black"/>
    <rect x="9.68" y="74.19" width="3.23" height="3.23" stroke="black" stroke-width="0.2" stroke-linecap="butt" fill="black"/>
    <rect x="9.68" y="77.42" width="3.23" height="3.23" stroke="black" stroke-width="0.2" stroke-linecap="butt" fill="black"/>
    <rect x="9.68" y="80.65" width="3.23" height="3.23" stroke="black" stroke-width="0.2" stroke-linecap="butt" fill="black"/>
    <rect x="9.68" y="83.87" width="3.23" height="3.23" stroke="black" stroke-width="0.2" stroke-linecap="butt" fill="black"/>
    <rect x="9.68" y="87.10" width="3.23" height="3.23" stroke="black" stroke-width="0.2" stroke-linecap="butt" fill="black"/>
    <rect x="12.90" y="9.68" width="3.23" height="3.23" stroke="black" stroke-width="0.2" stroke-linecap="butt" fill="black"/>
    <rect x="12.90" y="29.03" width="3.23" height="3.23" stroke="black" stroke-width="0.2" stroke-linecap="butt" fill="black"/>
    <rect x="12.90" y="35.48" width="3.23" height="3.23" stroke="black" stroke-width="0.2" stroke-linecap="butt" fill="black"/>
    <rect x="12.90" y="38.71" width="3.23" height="3.23" stroke="black" stroke-width="0.2" stroke-linecap="butt" fill="black"/>
    <rect x="12.90" y="45.16" width="3.23" height="3.23" stroke="black" stroke-width="0.2" stroke-linecap="butt" fill="black"/>
    <rect x="12.90" y="54.84" width="3.23" height="3.23" stroke="black" stroke-width="0.2" stroke-linecap="butt" fill="black"/>
    <rect x="12.90" y="67.74" width="3.23" height="3.23" stroke="black" stroke-width="0.2" stroke-linecap="butt" fill="black"/>
    <rect x="12.90" y="87.10" width="3.23" height="3.23" stroke="black" stroke-width="0.2" stroke-linecap="butt" fill="black"/>
    <rect x="16.13" y="9.68" width="3.23" height="3.23" stroke="black" stroke-width="0.2" stroke-linecap="butt" fill="black"/>
    <rect x="16.13" y="16.13" width="3.23" height="3.23" stroke="black" stroke-width="0.2" stroke-linecap="butt" fill="black"/>
    <rect x="16.13" y="19.35" width="3.23" height="3.23" stroke="black" stroke-width="0.2" stroke-linecap="butt" fill="black"/>
    <rect x="16.13" y="22.58" width="3.23" height="3.23" stroke="black" stroke-width="0.2" stroke-linecap="butt" fill="black"/>
    <rect x="16.13" y="29.03" width="3.23" height="3.23" stroke="black" stroke-width="0.2" stroke-linecap="butt" fill="black"/>
    <rect x="16.13" y="35.48" width="3.23" height="3.23" stroke="black" stroke-width="0.2" stroke-linecap="butt" fill="black"/>
    <rect x="16.13" y="38.71" width="3.23" height="3.23" stroke="black" stroke-width="0.2" stroke-linecap="butt" fill="black"/>
    <rect x="16.13" y="45.16" width="3.23" height="3.23" stroke="black" stroke-width="0.2" stroke-linecap="butt" fill="black"/>
    <rect x="16.13" y="48.39" width="3.23" height="3.23" stroke="black" stroke-width="0.2" stroke-linecap="butt" fill="black"/>
    <rect x="16.13" y="51.61" width="3.23" height="3.23" stroke="black" stroke-width="0.2" stroke-linecap="butt" fill="black"/>
    <rect x="16.13" y="54.84" width="3.23" height="3.23" stroke="black" stroke-width="0.2" stroke-linecap="butt" fill="black"/>
    <rect x="16.13" y="67.74" width="3.23" height="3.23" stroke="black" stroke-width="0.2" stroke-linecap="butt" fill="black"/>
    <rect x="16.13" y="74.19" width="3.23" height="3.23" stroke="black" stroke-width="0.2" stroke-linecap="butt" fill="black"/>
    <rect x="16.13" y="77.42" width="3.23" height="3.23" stroke="black" stroke-width="0.2" stroke-linecap="butt" fill="black"/>
    <rect x="16.13" y="80.65" width="3.23" height="3.23" stroke="black" stroke-width="0.2" stroke-linecap="butt" fill="black"/>
    <rect x="16.13" y="87.10" width="3.23" height="3.23" stroke="black" stroke-width="0.2" stroke-linecap="butt" fill="black"/>
    <rect x="19.35" y="9.68" width="3.23" height="3.23" stroke="black" stroke-width="0.2" stroke-linecap="butt" fill="black"/>
    <rect x="19.35" y="16.13" width="3.23" height="3.23" stroke="black" stroke-width="0.2" stroke-linecap="butt" fill="black"/>
    <rect x="19.35" y="19.35" width="3.23" height="3.23" stroke="black" stroke-width="0.2" stroke-linecap="butt" fill="black"/>
    <rect x="19.35" y="22.58" width="3.23" height="3.23" stroke="black" stroke-width="0.2" stroke-linecap="butt" fill="black"/>
    <rect x="19.35" y="29.03" width="3.23" height="3.23" stroke="black" stroke-width="0.2" stroke-linecap="butt" fill="black"/>
    <rect x="19.35" y="35.48" width="3.23" height="3.23" stroke="black" stroke-width="0.2" stroke-linecap="butt" fill="black"/>
    <rect x="19.35" y="38.71" width="3.23" height="3.23" stroke="black" stroke-width="0.2" stroke-linecap="butt" fill="black"/>
    <rect x="19.35" y="54.84" width="3.23" height="3.23" stroke="black" stroke-width="0.2" stroke-linecap="butt" fill="black"/>
    <rect x="19.35" y="61.29" width="3.23" height="3.23" stroke="black" stroke-width="0.2" stroke-linecap="butt" fill="black"/>
    <rect x="19.35" y="67.74" width="3.23" height="3.23" stroke="black" stroke-width="0.2" stroke-linecap="butt" fill="black"/>
    <rect x="19.35" y="74.19" width="3.23" height="3.23" stroke="black" stroke-width="0.2" stroke-linecap="butt" fill="black"/>
    <rect x="19.35" y="77.42" width="3.23" height="3.23" stroke="black" stroke-width="0.2" stroke-linecap="butt" fill="black"/>
    <rect x="19.35" y="80.65" width="3.23" height="3.23" stroke="black" stroke-width="0.2" stroke-linecap="butt" fill="black"/>
    <rect x="19.35" y="87.10" width="3.23" height="3.23" stroke="black" stroke-width="0.2" stroke-linecap="butt" fill="black"/>
    <rect x="22.58" y="9.68" width="3.23" height="3.23" stroke="black" stroke-width="0.2" stroke-linecap="butt" fill="black"/>
    <rect x="22.58" y="16.13" width="3.23" height="3.23" stroke="black" stroke-width="0.2" stroke-linecap="butt" fill="black"/>
    <rect x="22.58" y="19.35" width="3.23" height="3.23" stroke="black" stroke-width="0.2" stroke-linecap="butt" fill="black"/>
    <rect x="22.58" y="22.58" width="3.23" height="3.23" stroke="black" stroke-width="0.2" stroke-linecap="butt" fill="black"/>
    <rect x="22.58" y="29.03" width="3.23" height="3.23" stroke="black" stroke-width="0.2" stroke-linecap="butt" fill="black"/>
    <rect x="22.58" y="38.71" width="3.23" height="3.23" stroke="black" stroke-width="0.2" stroke-linecap="butt" fill="black"/>
    <rect x="22.58" y="41.94" width="3.23" height="3.23" stroke="black" stroke-width="0.2" stroke-linecap="butt" fill="black"/>
    <rect x="22.58" y="45.16" width="3.23" height="3.23" stroke="black" stroke-width="0.2" stroke-linecap="butt" fill="black"/>
    <rect x="22.58" y="51.61" width="3.23" height="3.23" stroke="black" stroke-width="0.2" stroke-linecap="butt" fill="black"/>
    <rect x="22.58" y="54.84" width="3.23" height="3.23" stroke="black" stroke-width="0.2" stroke-linecap="butt" fill="black"/>
    <rect x="22.58" y="61.29" width="3.23" height="3.23" stroke="black" stroke-width="0.2" stroke-linecap="butt" fill="black"/>
    <rect x="22.58" y="67.74" width="3.23" height="3.23" stroke="black" stroke-width="0.2" stroke-linecap="butt" fill="black"/>
    <rect x="22.58" y="74.19" width="3.23" height="3.23" stroke="black" stroke-width="0.2" stroke-linecap="butt" fill="black"/>
    <rect x="22.58" y="77.42" width="3.23" height="3.23" stroke="black" stroke-width="0.2" stroke-linecap="butt" fill="black"/>
    <rect x="22.58" y="80.65" width="3.23" height="3.23" stroke="black" stroke-width="0.2" stroke-linecap="butt" fill="black"/>
    <rect x="22.58" y="87.10" width="3.23" height="3.23" stroke="black" stroke-width="0.2" stroke-linecap="butt" fill="black"/>
    <rect x="25.81" y="9.68" width="3.23" height="3.23" stroke="black" stroke-width="0.2" stroke-linecap="butt" fill="black"/>
    <rect x="25.81" y="29.03" width="3.23" height="3.23" stroke="black" stroke-width="0.2" stroke-linecap="butt" fill="black"/>
    <rect x="25.81" y="45.16" width="3.23" height="3.23" stroke="black" stroke-width="0.2" stroke-linecap="butt" fill="black"/>
    <rect x="25.81" y="51.61" width="3.23" height="3.23" stroke="black" stroke-width="0.2" stroke-linecap="butt" fill="black"/>
    <rect x="25.81" y="58.06" width="3.23" height="3.23" stroke="black" stroke-width="0.2" stroke-linecap="butt" fill="black"/>
    <rect x="25.81" y="67.74" width="3.23" height="3.23" stroke="black" stroke-width="0.2" stroke-linecap="butt" fill="black"/>
    <rect x="25.81" y="87.10" width="3.23" height="3.23" stroke="black" stroke-width="0.2" stroke-linecap="butt" fill="black"/>
    <rect x="29.03" y="9.68" width="3.23" height="3.23" stroke="black" stroke-width="0.2" stroke-linecap="butt" fill="black"/>
    <rect x="29.03" y="12.90" width="3.23" height="3.23" stroke="black" stroke-width="0.2" stroke-linecap="butt" fill="black"/>
    <rect x="29.03" y="16.13" width="3.23" height="3.23" stroke="black" stroke-width="0.2" stroke-linecap="butt" fill="black"/>
    <rect x="29.03" y="19.35" width="3.23" height="3.23" stroke="black" stroke-width="0.2" stroke-linecap="butt" fill="black"/>
    <rect x="29.03" y="22.58" width="3.23" height="3.23" stroke="black" stroke-width="0.2" stroke-linecap="butt" fill="black"/>
    <rect x="29.03" y="25.81" width="3.23" height="3.23" stroke="black" stroke-width="0.2" stroke-linecap="butt" fill="black"/>
    <rect x="29.03" y="29.03" width="3.23" height="3.23" stroke="black" stroke-width="0.2" stroke-linecap="butt" fill="black"/>
    <rect x="29.03" y="35.48" width="3.23" height="3.23" stroke="black" stroke-width="0.2" stroke-linecap="butt" fill="black"/>
    <rect x="29.03" y="41.94" width="3.23" height="3.23" stroke="black" stroke-width="0.2" stroke-linecap="butt" fill="black"/>
    <rect x="29.03" y="48.39" width="3.23" height="3.23" stroke="black" stroke-width="0.2" stroke-linecap="butt" fill="black"/>
    <rect x="29.03" y="54.84" width="3.23" height="3.23" stroke="black" stroke-width="0.2" stroke-linecap="butt" fill="black"/>
    <rect x="29.03" y="61.29" width="3.23" height="3.23" stroke="black" stroke-width="0.2" stroke-linecap="butt" fill="black"/>
    <rect x="29.03" y="67.74" width="3.23" height="3.23" stroke="black" stroke-width="0.2" stroke-linecap="butt" fill="black"/>
    <rect x="29.03" y="70.97" width="3.23" height="3.23" stroke="black" stroke-width="0.2" stroke-linecap="butt" fill="black"/>
    <rect x="29.03" y="74.19" width="3.23" height="3.23" stroke="black" stroke-width="0.2" stroke-linecap="butt" fill="black"/>
    <rect x="29.03" y="77.42" width="3.23" height="3.23" stroke="black" stroke-width="0.2" stroke-linecap="butt" fill="black"/>
    <rect x="29.03" y="80.65" width="3.23" height="3.23" stroke="black" stroke-width="0.2" stroke-linecap="butt" fill="black"/>
    <rect x="29.03" y="83.87" width="3.23" height="3.23" stroke="black" stroke-width="0.2" stroke-linecap="butt" fill="black"/>
    <rect x="29.03" y="87.10" width="3.23" height="3.23" stroke="black" stroke-width="0.2" stroke-linecap="butt" fill="black"/>
    <rect x="32.26" y="38.71" width="3.23" height="3.23" stroke="black" stroke-width="0.2" stroke-linecap="butt" fill="black"/>
    <rect x="32.26" y="41.94" width="3.23" height="3.23" stroke="black" stroke-width="0.2" stroke-linecap="butt" fill="black"/>
    <rect x="32.26" y="45.16" width="3.23" height="3.23" stroke="black" stroke-width="0.2" stroke-linecap="butt" fill="black"/>
    <rect x="32.26" y="48.39" width="3.23" height="3.23" stroke="black" stroke-width="0.2" stroke-linecap="butt" fill="black"/>
    <rect x="32.26" y="51.61" width="3.23" height="3.23" stroke="black" stroke-width="0.2" stroke-linecap="butt" fill="black"/>
    <rect x="32.26" y="54.84" width="3.23" height="3.23" stroke="black" stroke-width="0.2" stroke-linecap="butt" fill="black"/>
    <rect x="32.26" y="61.29" width="3.23" height="3.23" stroke="black" stroke-width="0.2" stroke-linecap="butt" fill="black"/>
    <rect x="35.48" y="9.68" width="3.23" height="3.23" stroke="black" stroke-width="0.2" stroke-linecap="butt" fill="black"/>
    <rect x="35.48" y="16.13" width="3.23" height="3.23" stroke="black" stroke-width="0.2" stroke-linecap="butt" fill="black"/>
    <rect x="35.48" y="19.35" width="3.23" height="3.23" stroke="black" stroke-width="0.2" stroke-linecap="butt" fill="black"/>
    <rect x="35.48" y="22.58" width="3.23" height="3.23" stroke="black" stroke-width="0.2" stroke-linecap="butt" fill="black"/>
    <rect x="35.48" y="29.03" width="3.23" height="3.23" stroke="black" stroke-width="0.2" stroke-linecap="butt" fill="black"/>
    <rect x="35.48" y="35.48" width="3.23" height="3.23" stroke="black" stroke-width="0.2" stroke-linecap="butt" fill="black"/>
    <rect x="35.48" y="48.39" width="3.23" height="3.23" stroke="black" stroke-width="0.2" stroke-linecap="butt" fill="black"/>
    <rect x="35.48" y="54.84" width="3.23" height="3.23" stroke="black" stroke-width="0.2" stroke-linecap="butt" fill="black"/>
    <rect x="35.48" y="61.29" width="3.23" height="3.23" stroke="black" stroke-width="0.2" stroke-linecap="butt" fill="black"/>
    <rect x="35.48" y="64.52" width="3.23" height="3.23" stroke="black" stroke-width="0.2" stroke-linecap="butt" fill="black"/>
    <rect x="35.48" y="77.42" width="3.23" height="3.23" stroke="black" stroke-width="0.2" stroke-linecap="butt" fill="black"/>
    <rect x="35.48" y="80.65" width="3.23" height="3.23" stroke="black" stroke-width="0.2" stroke-linecap="butt" fill="black"/>
    <rect x="35.48" y="83.87" width="3.23" height="3.23" stroke="black" stroke-width="0.2" stroke-linecap="butt" fill="black"/>
    <rect x="35.48" y="87.10" width="3.23" height="3.23" stroke="black" stroke-width="0.2" stroke-linecap="butt" fill="black"/>
    <rect x="38.71" y="9.68" width="3.23" height="3.23" stroke="black" stroke-width="0.2" stroke-linecap="butt" fill="black"/>
    <rect x="38.71" y="22.58" width="3.23" height="3.23" stroke="black" stroke-width="0.2" stroke-linecap="butt" fill="black"/>
    <rect x="38.71" y="25.81" width="3.23" height="3.23" stroke="black" stroke-width="0.2" stroke-linecap="butt" fill="black"/>
    <rect x="38.71" y="41.94" width="3.23" height="3.23" stroke="black" stroke-width="0.2" stroke-linecap="butt" fill="black"/>
    <rect x="38.71" y="45.16" width="3.23" height="3.23" stroke="black" stroke-width="0.2" stroke-linecap="butt" fill="black"/>
    <rect x="38.71" y="48.39" width="3.23" height="3.23" stroke="black" stroke-width="0.2" stroke-linecap="butt" fill="black"/>
    <rect x="38.71" y="51.61" width="3.23" height="3.23" stroke="black" stroke-width="0.2" stroke-linecap="butt" fill="black"/>
    <rect x="38.71" y="61.29" width="3.23" height="3.23" stroke="black" stroke-width="0.2" stroke-linecap="butt" fill="black"/>
    <rect x="38.71" y="67.74" width="3.23" height="3.23" stroke="black" stroke-width="0.2" stroke-linecap="butt" fill="black"/>
    <rect x="38.71" y="70.97" width="3.23" height="3.23" stroke="black" stroke-width="0.2" stroke-linecap="butt" fill="black"/>
    <rect x="38.71" y="77.42" width="3.23" height="3.23" stroke="black" stroke-width="0.2" stroke-linecap="butt" fill="black"/>
    <rect x="38.71" y="83.87" width="3.23" height="3.23" stroke="black" stroke-width="0.2" stroke-linecap="butt" fill="black"/>
    <rect x="41.94" y="9.68" width="3.23" height="3.23" stroke="black" stroke-width="0.2" stroke-linecap="butt" fill="black"/>
    <rect x="41.94" y="12.90" width="3.23" height="3.23" stroke="black" stroke-width="0.2" stroke-linecap="butt" fill="black"/>
    <rect x="41.94" y="16.13" width="3.23" height="3.23" stroke="black" stroke-width="0.2" stroke-linecap="butt" fill="black"/>
    <rect x="41.94" y="29.03" width="3.23" height="3.23" stroke="black" stroke-width="0.2" stroke-linecap="butt" fill="black"/>
    <rect x="41.94" y="32.26" width="3.23" height="3.23" stroke="black" stroke-width="0.2" stroke-linecap="butt" fill="black"/>
    <rect x="41.94" y="35.48" width="3.23" height="3.23" stroke="black" stroke-width="0.2" stroke-linecap="butt" fill="black"/>
    <rect x="41.94" y="41.94" width="3.23" height="3.23" stroke="black" stroke-width="0.2" stroke-linecap="butt" fill="black"/>
    <rect x="41.94" y="45.16" width="3.23" height="3.23" stroke="black" stroke-width="0.2" stroke-linecap="butt" fill="black"/>
    <rect x="41.94" y="48.39" width="3.23" height="3.23" stroke="black" stroke-width="0.2" stroke-linecap="butt" fill="black"/>
    <rect x="41.94" y="58.06" width="3.23" height="3.23" stroke="black" stroke-width="0.2" stroke-linecap="butt" fill="black"/>
    <rect x="41.94" y="61.29" width="3.23" height="3.23" stroke="black" stroke-width="0.2" stroke-linecap="butt" fill="black"/>
    <rect x="41.94" y="70.97" width="3.23" height="3.23" stroke="black" stroke-width="0.2" stroke-linecap="butt" fill="black"/>
    <rect x="41.94" y="74.19" width="3.23" height="3.23" stroke="black" stroke-width="0.2" stroke-linecap="butt" fill="black"/>
    <rect x="41.94" y="77.42" width="3.23" height="3.23" stroke="black" stroke-width="0.2" stroke-linecap="butt" fill="black"/>
    <rect x="41.94" y="83.87" width="3.23" height="3.23" stroke="black" stroke-width="0.2" stroke-linecap="butt" fill="black"/>
    <rect x="45.16" y="9.68" width="3.23" height="3.23" stroke="black" stroke-width="0.2" stroke-linecap="butt" fill="black"/>
    <rect x="45.16" y="12.90" width="3.23" height="3.23" stroke="black" stroke-width="0.2" stroke-linecap="butt" fill="black"/>
    <rect x="45.16" y="16.13" width="3.23" height="3.23" stroke="black" stroke-width="0.2" stroke-linecap="butt" fill="black"/>
    <rect x="45.16" y="32.26" width="3.23" height="3.23" stroke="black" stroke-width="0.2" stroke-linecap="butt" fill="black"/>
    <rect x="45.16" y="38.71" width="3.23" height="3.23" stroke="black" stroke-width="0.2" stroke-linecap="butt" fill="black"/>
    <rect x="45.16" y="41.94" width="3.23" height="3.23" stroke="black" stroke-width="0.2" stroke-linecap="butt" fill="black"/>
    <rect x="45.16" y="51.61" width="3.23" height="3.23" stroke="black" stroke-width="0.2" stroke-linecap="butt" fill="black"/>
    <rect x="45.16" y="58.06" width="3.23" height="3.23" stroke="black" stroke-width="0.2" stroke-linecap="butt" fill="black"/>
    <rect x="45.16" y="64.52" width="3.23" height="3.23" stroke="black" stroke-width="0.2" stroke-linecap="butt" fill="black"/>
    <rect x="45.16" y="74.19" width="3.23" height="3.23" stroke="black" stroke-width="0.2" stroke-linecap="butt" fill="black"/>
    <rect x="45.16" y="77.42" width="3.23" height="3.23" stroke="black" stroke-width="0.2" stroke-linecap="butt" fill="black"/>
    <rect x="45.16" y="80.65" width="3.23" height="3.23" stroke="black" stroke-width="0.2" stroke-linecap="butt" fill="black"/>
    <rect x="45.16" y="87.10" width="3.23" height="3.23" stroke="black" stroke-width="0.2" stroke-linecap="butt" fill="black"/>
    <rect x="48.39" y="12.90" width="3.23" height="3.23" stroke="black" stroke-width="0.2" stroke-linecap="butt" fill="black"/>
    <rect x="48.39" y="22.58" width="3.23" height="3.23" stroke="black" stroke-width="0.2" stroke-linecap="butt" fill="black"/>
    <rect x="48.39" y="25.81" width="3.23" height="3.23" stroke="black" stroke-width="0.2" stroke-linecap="butt" fill="black"/>
    <rect x="48.39" y="29.03" width="3.23" height="3.23" stroke="black" stroke-width="0.2" stroke-linecap="butt" fill="black"/>
    <rect x="48.39" y="32.26" width="3.23" height="3.23" stroke="black" stroke-width="0.2" stroke-linecap="butt" fill="black"/>
    <rect x="48.39" y="45.16" width="3.23" height="3.23" stroke="black" stroke-width="0.2" stroke-linecap="butt" fill="black"/>
    <rect x="48.39" y="51.61" width="3.23" height="3.23" stroke="black" stroke-width="0.2" stroke-linecap="butt" fill="black"/>
    <rect x="48.39" y="54.84" width="3.23" height="3.23" stroke="black" stroke-width="0.2" stroke-linecap="butt" fill="black"/>
    <rect x="48.39" y="70.97" width="3.23" height="3.23" stroke="black" stroke-width="0.2" stroke-linecap="butt" fill="black"/>
    <rect x="48.39" y="80.65" width="3.23" height="3.23" stroke="black" stroke-width="0.2" stroke-linecap="butt" fill="black"/>
    <rect x="48.39" y="87.10" width="3.23" height="3.23" stroke="black" stroke-width="0.2" stroke-linecap="butt" fill="black"/>
    <rect x="51.61" y="9.68" width="3.23" height="3.23" stroke="black" stroke-width="0.2" stroke-linecap="butt" fill="black"/>
    <rect x="51.61" y="16.13" width="3.23" height="3.23" stroke="black" stroke-width="0.2" stroke-linecap="butt" fill="black"/>
    <rect x="51.61" y="19.35" width="3.23" height="3.23" stroke="black" stroke-width="0.2" stroke-linecap="butt" fill="black"/>
    <rect x="51.61" y="25.81" width="3.23" height="3.23" stroke="black" stroke-width="0.2" stroke-linecap="butt" fill="black"/>
    <rect x="51.61" y="38.71" width="3.23" height="3.23" stroke="black" stroke-width="0.2" stroke-linecap="butt" fill="black"/>
    <rect x="51.61" y="45.16" width="3.23" height="3.23" stroke="black" stroke-width="0.2" stroke-linecap="butt" fill="black"/>
    <rect x="51.61" y="48.39" width="3.23" height="3.23" stroke="black" stroke-width="0.2" stroke-linecap="butt" fill="black"/>
    <rect x="51.61" y="54.84" width="3.23" height="3.23" stroke="black" stroke-width="0.2" stroke-linecap="butt" fill="black"/>
    <rect x="51.61" y="61.29" width="3.23" height="3.23" stroke="black" stroke-width="0.2" stroke-linecap="butt" fill="black"/>
    <rect x="51.61" y="64.52" width="3.23" height="3.23" stroke="black" stroke-width="0.2" stroke-linecap="butt" fill="black"/>
    <rect x="51.61" y="67.74" width="3.23" height="3.23" stroke="black" stroke-width="0.2" stroke-linecap="butt" fill="black"/>
    <rect x="51.61" y="77.42" width="3.23" height="3.23" stroke="black" stroke-width="0.2" stroke-linecap="butt" fill="black"/>
    <rect x="51.61" y="80.65" width="3.23" height="3.23" stroke="black" stroke-width="0.2" stroke-linecap="butt" fill="black"/>
    <rect x="51.61" y="83.87" width="3.23" height="3.23" stroke="black" stroke-width="0.2" stroke-linecap="butt" fill="black"/>
    <rect x="51.61" y="87.10" width="3.23" height="3.23" stroke="black" stroke-width="0.2" stroke-linecap="butt" fill="black"/>
    <rect x="54.84" y="12.90" width="3.23" height="3.23" stroke="black" stroke-width="0.2" stroke-linecap="butt" fill="black"/>
    <rect x="54.84" y="16.13" width="3.23" height="3.23" stroke="black" stroke-width="0.2" stroke-linecap="butt" fill="black"/>
    <rect x="54.84" y="19.35" width="3.23" height="3.23" stroke="black" stroke-width="0.2" stroke-linecap="butt" fill="black"/>
    <rect x="54.84" y="25.81" width="3.23" height="3.23" stroke="black" stroke-width="0.2" stroke-linecap="butt" fill="black"/>
    <rect x="54.84" y="29.03" width="3.23" height="3.23" stroke="black" stroke-width="0.2" stroke-linecap="butt" fill="black"/>
    <rect x="54.84" y="32.26" width="3.23" height="3.23" stroke="black" stroke-width="0.2" stroke-linecap="butt" fill="black"/>
    <rect x="54.84" y="35.48" width="3.23" height="3.23" stroke="black" stroke-width="0.2" stroke-linecap="butt" fill="black"/>
    <rect x="54.84" y="41.94" width="3.23" height="3.23" stroke="black" stroke-width="0.2" stroke-linecap="butt" fill="black"/>
    <rect x="54.84" y="48.39" width="3.23" height="3.23" stroke="black" stroke-width="0.2" stroke-linecap="butt" fill="black"/>
    <rect x="54.84" y="54.84" width="3.23" height="3.23" stroke="black" stroke-width="0.2" stroke-linecap="butt" fill="black"/>
    <rect x="54.84" y="58.06" width="3.23" height="3.23" stroke="black" stroke-width="0.2" stroke-linecap="butt" fill="black"/>
    <rect x="54.84" y="70.97" width="3.23" height="3.23" stroke="black" stroke-width="0.2" stroke-linecap="butt" fill="black"/>
    <rect x="54.84" y="87.10" width="3.23" height="3.23" stroke="black" stroke-width="0.2" stroke-linecap="butt" fill="black"/>
    <rect x="58.06" y="16.13" width="3.23" height="3.23" stroke="black" stroke-width="0.2" stroke-linecap="butt" fill="black"/>
    <rect x="58.06" y="19.35" width="3.23" height="3.23" stroke="black" stroke-width="0.2" stroke-linecap="butt" fill="black"/>
    <rect x="58.06" y="22.58" width="3.23" height="3.23" stroke="black" stroke-width="0.2" stroke-linecap="butt" fill="black"/>
    <rect x="58.06" y="32.26" width="3.23" height="3.23" stroke="black" stroke-width="0.2" stroke-linecap="butt" fill="black"/>
    <rect x="58.06" y="35.48" width="3.23" height="3.23" stroke="black" stroke-width="0.2" stroke-linecap="butt" fill="black"/>
    <rect x="58.06" y="45.16" width="3.23" height="3.23" stroke="black" stroke-width="0.2" stroke-linecap="butt" fill="black"/>
    <rect x="58.06" y="48.39" width="3.23" height="3.23" stroke="black" stroke-width="0.2" stroke-linecap="butt" fill="black"/>
    <rect x="58.06" y="51.61" width="3.23" height="3.23" stroke="black" stroke-width="0.2" stroke-linecap="butt" fill="black"/>
    <rect x="58.06" y="64.52" width="3.23" height="3.23" stroke="black" stroke-width="0.2" stroke-linecap="butt" fill="black"/>
    <rect x="58.06" y="70.97" width="3.23" height="3.23" stroke="black" stroke-width="0.2" stroke-linecap="butt" fill="black"/>
    <rect x="58.06" y="80.65" width="3.23" height="3.23" stroke="black" stroke-width="0.2" stroke-linecap="butt" fill="black"/>
    <rect x="61.29" y="9.68" width="3.23" height="3.23" stroke="black" stroke-width="0.2" stroke-linecap="butt" fill="black"/>
    <rect x="61.29" y="12.90" width="3.23" height="3.23" stroke="black" stroke-width="0.2" stroke-linecap="butt" fill="black"/>
    <rect x="61.29" y="22.58" width="3.23" height="3.23" stroke="black" stroke-width="0.2" stroke-linecap="butt" fill="black"/>
    <rect x="61.29" y="25.81" width="3.23" height="3.23" stroke="black" stroke-width="0.2" stroke-linecap="butt" fill="black"/>
    <rect x="61.29" y="29.03" width="3.23" height="3.23" stroke="black" stroke-width="0.2" stroke-linecap="butt" fill="black"/>
    <rect x="61.29" y="32.26" width="3.23" height="3.23" stroke="black" stroke-width="0.2" stroke-linecap="butt" fill="black"/>
    <rect x="61.29" y="35.48" width="3.23" height="3.23" stroke="black" stroke-width="0.2" stroke-linecap="butt" fill="black"/>
    <rect x="61.29" y="41.94" width="3.23" height="3.23" stroke="black" stroke-width="0.2" stroke-linecap="butt" fill="black"/>
    <rect x="61.29" y="45.16" width="3.23" height="3.23" stroke="black" stroke-width="0.2" stroke-linecap="butt" fill="black"/>
    <rect x="61.29" y="48.39" width="3.23" height="3.23" stroke="black" stroke-width="0.2" stroke-linecap="butt" fill="black"/>
    <rect x="61.29" y="51.61" width="3.23" height="3.23" stroke="black" stroke-width="0.2" stroke-linecap="butt" fill="black"/>
    <rect x="61.29" y="61.29" width="3.23" height="3.23" stroke="black" stroke-width="0.2" stroke-linecap="butt" fill="black"/>
    <rect x="61.29" y="64.52" width="3.23" height="3.23" stroke="black" stroke-width="0.2" stroke-linecap="butt" fill="black"/>
    <rect x="61.29" y="67.74" width="3.23" height="3.23" stroke="black" stroke-width="0.2" stroke-linecap="butt" fill="black"/>
    <rect x="61.29" y="70.97" width="3.23" height="3.23" stroke="black" stroke-width="0.2" stroke-linecap="butt" fill="black"/>
    <rect x="61.29" y="74.19" width="3.23" height="3.23" stroke="black" stroke-width="0.2" stroke-linecap="butt" fill="black"/>
    <rect x="61.29" y="77.42" width="3.23" height="3.23" stroke="black" stroke-width="0.2" stroke-linecap="butt" fill="black"/>
    <rect x="61.29" y="80.65" width="3.23" height="3.23" stroke="black" stroke-width="0.2" stroke-linecap="butt" fill="black"/>
    <rect x="64.52" y="35.48" width="3.23" height="3.23" stroke="black" stroke-width="0.2" stroke-linecap="butt" fill="black"/>
    <rect x="64.52" y="41.94" width="3.23" height="3.23" stroke="black" stroke-width="0.2" stroke-linecap="butt" fill="black"/>
    <rect x="64.52" y="45.16" width="3.23" height="3.23" stroke="black" stroke-width="0.2" stroke-linecap="butt" fill="black"/>
    <rect x="64.52" y="48.39" width="3.23" height="3.23" stroke="black" stroke-width="0.2" stroke-linecap="butt" fill="black"/>
    <rect x="64.52" y="51.61" width="3.23" height="3.23" stroke="black" stroke-width="0.2" stroke-linecap="butt" fill="black"/>
    <rect x="64.52" y="54.84" width="3.23" height="3.23" stroke="black" stroke-width="0.2" stroke-linecap="butt" fill="black"/>
    <rect x="64.52" y="61.29" width="3.23" height="3.23" stroke="black" stroke-width="0.2" stroke-linecap="butt" fill="black"/>
    <rect x="64.52" y="74.19" width="3.23" height="3.23" stroke="black" stroke-width="0.2" stroke-linecap="butt" fill="black"/>
    <rect x="64.52" y="77.42" width="3.23" height="3.23" stroke="black" stroke-width="0.2" stroke-linecap="butt" fill="black"/>
    <rect x="64.52" y="83.87" width="3.23" height="3.23" stroke="black" stroke-width="0.2" stroke-linecap="butt" fill="black"/>
    <rect x="67.74" y="9.68" width="3.23" height="3.23" stroke="black" stroke-width="0.2" stroke-linecap="butt" fill="black"/>
    <rect x="67.74" y="12.90" width="3.23" height="3.23" stroke="black" stroke-width="0.2" stroke-linecap="butt" fill="black"/>
    <rect x="67.74" y="16.13" width="3.23" height="3.23" stroke="black" stroke-width="0.2" stroke-linecap="butt" fill="black"/>
    <rect x="67.74" y="19.35" width="3.23" height="3.23" stroke="black" stroke-width="0.2" stroke-linecap="butt" fill="black"/>
    <rect x="67.74" y="22.58" width="3.23" height="3.23" stroke="black" stroke-width="0.2" stroke-linecap="butt" fill="black"/>
    <rect x="67.74" y="25.81" width="3.23" height="3.23" stroke="black" stroke-width="0.2" stroke-linecap="butt" fill="black"/>
    <rect x="67.74" y="29.03" width="3.23" height="3.23" stroke="black" stroke-width="0.2" stroke-linecap="butt" fill="black"/>
    <rect x="67.74" y="48.39" width="3.23" height="3.23" stroke="black" stroke-width="0.2" stroke-linecap="butt" fill="black"/>
    <rect x="67.74" y="51.61" width="3.23" height="3.23" stroke="black" stroke-width="0.2" stroke-linecap="butt" fill="black"/>
    <rect x="67.74" y="54.84" width="3.23" height="3.23" stroke="black" stroke-width="0.2" stroke-linecap="butt" fill="black"/>
    <rect x="67.74" y="61.29" width="3.23" height="3.23" stroke="black" stroke-width="0.2" stroke-linecap="butt" fill="black"/>
    <rect x="67.74" y="67.74" width="3.23" height="3.23" stroke="black" stroke-width="0.2" stroke-linecap="butt" fill="black"/>
    <rect x="67.74" y="74.19" width="3.23" height="3.23" stroke="black" stroke-width="0.2" stroke-linecap="butt" fill="black"/>
    <rect x="67.74" y="77.42" width="3.23" height="3.23" stroke="black" stroke-width="0.2" stroke-linecap="butt" fill="black"/>
    <rect x="67.74" y="80.65" width="3.23" height="3.23" stroke="black" stroke-width="0.2" stroke-linecap="butt" fill="black"/>
    <rect x="70.97" y="9.68" width="3.23" height="3.23" stroke="black" stroke-width="0.2" stroke-linecap="butt" fill="black"/>
    <rect x="70.97" y="29.03" width="3.23" height="3.23" stroke="black" stroke-width="0.2" stroke-linecap="butt" fill="black"/>
    <rect x="70.97" y="38.71" width="3.23" height="3.23" stroke="black" stroke-width="0.2" stroke-linecap="butt" fill="black"/>
    <rect x="70.97" y="45.16" width="3.23" height="3.23" stroke="black" stroke-width="0.2" stroke-linecap="butt" fill="black"/>
    <rect x="70.97" y="51.61" width="3.23" height="3.23" stroke="black" stroke-width="0.2" stroke-linecap="butt" fill="black"/>
    <rect x="70.97" y="58.06" width="3.23" height="3.23" stroke="black" stroke-width="0.2" stroke-linecap="butt" fill="black"/>
    <rect x="70.97" y="61.29" width="3.23" height="3.23" stroke="black" stroke-width="0.2" stroke-linecap="butt" fill="black"/>
    <rect x="70.97" y="74.19" width="3.23" height="3.23" stroke="black" stroke-width="0.2" stroke-linecap="butt" fill="black"/>
    <rect x="70.97" y="87.10" width="3.23" height="3.23" stroke="black" stroke-width="0.2" stroke-linecap="butt" fill="black"/>
    <rect x="74.19" y="9.68" width="3.23" height="3.23" stroke="black" stroke-width="0.2" stroke-linecap="butt" fill="black"/>
    <rect x="74.19" y="16.13" width="3.23" height="3.23" stroke="black" stroke-width="0.2" stroke-linecap="butt" fill="black"/>
    <rect x="74.19" y="19.35" width="3.23" height="3.23" stroke="black" stroke-width="0.2" stroke-linecap="butt" fill="black"/>
    <rect x="74.19" y="22.58" width="3.23" height="3.23" stroke="black" stroke-width="0.2" stroke-linecap="butt" fill="black"/>
    <rect x="74.19" y="29.03" width="3.23" height="3.23" stroke="black" stroke-width="0.2" stroke-linecap="butt" fill="black"/>
    <rect x="74.19" y="35.48" width="3.23" height="3.23" stroke="black" stroke-width="0.2" stroke-linecap="butt" fill="black"/>
    <rect x="74.19" y="45.16" width="3.23" height="3.23" stroke="black" stroke-width="0.2" stroke-linecap="butt" fill="black"/>
    <rect x="74.19" y="48.39" width="3.23" height="3.23" stroke="black" stroke-width="0.2" stroke-linecap="butt" fill="black"/>
    <rect x="74.19" y="51.61" width="3.23" height="3.23" stroke="black" stroke-width="0.2" stroke-linecap="butt" fill="black"/>
    <rect x="74.19" y="54.84" width="3.23" height="3.23" stroke="black" stroke-width="0.2" stroke-linecap="butt" fill="black"/>
    <rect x="74.19" y="58.06" width="3.23" height="3.23" stroke="black" stroke-width="0.2" stroke-linecap="butt" fill="black"/>
    <rect x="74.19" y="61.29" width="3.23" height="3.23" stroke="black" stroke-width="0.2" stroke-linecap="butt" fill="black"/>
    <rect x="74.19" y="64.52" width="3.23" height="3.23" stroke="black" stroke-width="0.2" stroke-linecap="butt" fill="black"/>
    <rect x="74.19" y="67.74" width="3.23" height="3.23" stroke="black" stroke-width="0.2" stroke-linecap="butt" fill="black"/>
    <rect x="74.19" y="70.97" width="3.23" height="3.23" stroke="black" stroke-width="0.2" stroke-linecap="butt" fill="black"/>
    <rect x="74.19" y="74.19" width="3.23" height="3.23" stroke="black" stroke-width="0.2" stroke-linecap="butt" fill="black"/>
    <rect x="74.19" y="77.42" width="3.23" height="3.23" stroke="black" stroke-width="0.2" stroke-linecap="butt" fill="black"/>
    <rect x="74.19" y="80.65" width="3.23" height="3.23" stroke="black" stroke-width="0.2" stroke-linecap="butt" fill="black"/>
    <rect x="74.19" y="83.87" width="3.23" height="3.23" stroke="black" stroke-width="0.2" stroke-linecap="butt" fill="black"/>
    <rect x="74.19" y="87.10" width="3.23" height="3.23" stroke="black" stroke-width="0.2" stroke-linecap="butt" fill="black"/>
    <rect x="77.42" y="9.68" width="3.23" height="3.23" stroke="black" stroke-width="0.2" stroke-linecap="butt" fill="black"/>
    <rect x="77.42" y="16.13" width="3.23" height="3.23" stroke="black" stroke-width="0.2" stroke-linecap="butt" fill="black"/>
    <rect x="77.42" y="19.35" width="3.23" height="3.23" stroke="black" stroke-width="0.2" stroke-linecap="butt" fill="black"/>
    <rect x="77.42" y="22.58" width="3.23" height="3.23" stroke="black" stroke-width="0.2" stroke-linecap="butt" fill="black"/>
    <rect x="77.42" y="29.03" width="3.23" height="3.23" stroke="black" stroke-width="0.2" stroke-linecap="butt" fill="black"/>
    <rect x="77.42" y="35.48" width="3.23" height="3.23" stroke="black" stroke-width="0.2" stroke-linecap="butt" fill="black"/>
    <rect x="77.42" y="45.16" width="3.23" height="3.23" stroke="black" stroke-width="0.2" stroke-linecap="butt" fill="black"/>
    <rect x="77.42" y="61.29" width="3.23" height="3.23" stroke="black" stroke-width="0.2" stroke-linecap="butt" fill="black"/>
    <rect x="77.42" y="74.19" width="3.23" height="3.23" stroke="black" stroke-width="0.2" stroke-linecap="butt" fill="black"/>
    <rect x="77.42" y="77.42" width="3.23" height="3.23" stroke="black" stroke-width="0.2" stroke-linecap="butt" fill="black"/>
    <rect x="77.42" y="87.10" width="3.23" height="3.23" stroke="black" stroke-width="0.2" stroke-linecap="butt" fill="black"/>
    <rect x="80.65" y="9.68" width="3.23" height="3.23" stroke="black" stroke-width="0.2" stroke-linecap="butt" fill="black"/>
    <rect x="80.65" y="16.13" width="3.23" height="3.23" stroke="black" stroke-width="0.2" stroke-linecap="butt" fill="black"/>
    <rect x="80.65" y="19.35" width="3.23" height="3.23" stroke="black" stroke-width="0.2" stroke-linecap="butt" fill="black"/>
    <rect x="80.65" y="22.58" width="3.23" height="3.23" stroke="black" stroke-width="0.2" stroke-linecap="butt" fill="black"/>
    <rect x="80.65" y="29.03" width="3.23" height="3.23" stroke="black" stroke-width="0.2" stroke-linecap="butt" fill="black"/>
    <rect x="80.65" y="35.48" width="3.23" height="3.23" stroke="black" stroke-width="0.2" stroke-linecap="butt" fill="black"/>
    <rect x="80.65" y="45.16" width="3.23" height="3.23" stroke="black" stroke-width="0.2" stroke-linecap="butt" fill="black"/>
    <rect x="80.65" y="48.39" width="3.23" height="3.23" stroke="black" stroke-width="0.2" stroke-linecap="butt" fill="black"/>
    <rect x="80.65" y="54.84" width="3.23" height="3.23" stroke="black" stroke-width="0.2" stroke-linecap="butt" fill="black"/>
    <rect x="80.65" y="61.29" width="3.23" height="3.23" stroke="black" stroke-width="0.2" stroke-linecap="butt" fill="black"/>
    <rect x="80.65" y="64.52" width="3.23" height="3.23" stroke="black" stroke-width="0.2" stroke-linecap="butt" fill="black"/>
    <rect x="80.65" y="67.74" width="3.23" height="3.23" stroke="black" stroke-width="0.2" stroke-linecap="butt" fill="black"/>
    <rect x="80.65" y="77.42" width="3.23" height="3.23" stroke="black" stroke-width="0.2" stroke-linecap="butt" fill="black"/>
    <rect x="80.65" y="80.65" width="3.23" height="3.23" stroke="black" stroke-width="0.2" stroke-linecap="butt" fill="black"/>
    <rect x="80.65" y="83.87" width="3.23" height="3.23" stroke="black" stroke-width="0.2" stroke-linecap="butt" fill="black"/>
    <rect x="80.65" y="87.10" width="3.23" height="3.23" stroke="black" stroke-width="0.2" stroke-linecap="butt" fill="black"/>
    <rect x="83.87" y="9.68" width="3.23" height="3.23" stroke="black" stroke-width="0.2" stroke-linecap="butt" fill="black"/>
    <rect x="83.87" y="29.03" width="3.23" height="3.23" stroke="black" stroke-width="0.2" stroke-linecap="butt" fill="black"/>
    <rect x="83.87" y="38.71" width="3.23" height="3.23" stroke="black" stroke-width="0.2" stroke-linecap="butt" fill="black"/>
    <rect x="83.87" y="48.39" width="3.23" height="3.23" stroke="black" stroke-width="0.2" stroke-linecap="butt" fill="black"/>
    <rect x="83.87" y="54.84" width="3.23" height="3.23" stroke="black" stroke-width="0.2" stroke-linecap="butt" fill="black"/>
    <rect x="83.87" y="61.29" width="3.23" height="3.23" stroke="black" stroke-width="0.2" stroke-linecap="butt" fill="black"/>
    <rect x="83.87" y="67.74" width="3.23" height="3.23" stroke="black" stroke-width="0.2" stroke-linecap="butt" fill="black"/>
    <rect x="83.87" y="74.19" width="3.23" height="3.23" stroke="black" stroke-width="0.2" stroke-linecap="butt" fill="black"/>
    <rect x="83.87" y="77.42" width="3.23" height="3.23" stroke="black" stroke-width="0.2" stroke-linecap="butt" fill="black"/>
    <rect x="83.87" y="80.65" width="3.23" height="3.23" stroke="black" stroke-width="0.2" stroke-linecap="butt" fill="black"/>
    <rect x="83.87" y="87.10" width="3.23" height="3.23" stroke="black" stroke-width="0.2" stroke-linecap="butt" fill="black"/>
    <rect x="87.10" y="9.68" width="3.23" height="3.23" stroke="black" stroke-width="0.2" stroke-linecap="butt" fill="black"/>
    <rect x="87.10" y="12.90" width="3.23" height="3.23" stroke="black" stroke-width="0.2" stroke-linecap="butt" fill="black"/>
    <rect x="87.10" y="16.13" width="3.23" height="3.23" stroke="black" stroke-width="0.2" stroke-linecap="butt" fill="black"/>
    <rect x="87.10" y="19.35" width="3.23" height="3.23" stroke="black" stroke-width="0.2" stroke-linecap="butt" fill="black"/>
    <rect x="87.10" y="22.58" width="3.23" height="3.23" stroke="black" stroke-width="0.2" stroke-linecap="butt" fill="black"/>
    <rect x="87.10" y="25.81" width="3.23" height="3.23" stroke="black" stroke-width="0.2" stroke-linecap="butt" fill="black"/>
    <rect x="87.10" y="29.03" width="3.23" height="3.23" stroke="black" stroke-width="0.2" stroke-linecap="butt" fill="black"/>
    <rect x="87.10" y="35.48" width="3.23" height="3.23" stroke="black" stroke-width="0.2" stroke-linecap="butt" fill="black"/>
    <rect x="87.10" y="48.39" width="3.23" height="3.23" stroke="black" stroke-width="0.2" stroke-linecap="butt" fill="black"/>
    <rect x="87.10" y="51.61" width="3.23" height="3.23" stroke="black" stroke-width="0.2" stroke-linecap="butt" fill="black"/>
    <rect x="87.10" y="58.06" width="3.23" height="3.23" stroke="black" stroke-width="0.2" stroke-linecap="butt" fill="black"/>
    <rect x="87.10" y="61.29" width="3.23" height="3.23" stroke="black" stroke-width="0.2" stroke-linecap="butt" fill="black"/>
    <rect x="87.10" y="64.52" width="3.23" height="3.23" stroke="black" stroke-width="0.2" stroke-linecap="butt" fill="black"/>
    <rect x="87.10" y="67.74" width="3.23" height="3.23" stroke="black" stroke-width="0.2" stroke-linecap="butt" fill="black"/>
    <rect x="87.10" y="70.97" width="3.23" height="3.23" stroke="black" stroke-width="0.2" stroke-linecap="butt" fill="black"/>
    <rect x="87.10" y="74.19" width="3.23" height="3.23" stroke="black" stroke-width="0.2" stroke-linecap="butt" fill="black"/>
    <rect x="87.10" y="77.42" width="3.23" height="3.23" stroke="black" stroke-width="0.2" stroke-linecap="butt" fill="black"/>
    <rect x="87.10" y="87.10" width="3.23" height="3.23" stroke="black" stroke-width="0.2" stroke-linecap="butt" fill="black"/>
  </g>
</svg>
